:SAMPLES-PER-SECOND 30
:FULLY-SPECIFIED
:DEGREES
347
root  41.0583 36.8982 7.34542 -127.768 83.9847 -157.53
RightUpLeg  -68.0059 -25.5717 24.9796
RightLeg  30.385 4.12981 2.37014
RightFoot  5.26948 1.53542 -10.2366
RightToes  0.000482159 0.542163 -0.142577
Spine  67.6765 -3.62782 5.88736
Spine1  7.79861 1.47819 -6.23365
HEad  -41.9225 -4.38411 -5.1978
LeftShoulder1  6.44198 -24.7049 -15.939
LeftArm  -60.2858 -58.6419 1.94805
LeftForeArm  -4.01863 -33.8669 -7.77243
LeftHand  -0.25398 0.0180481 5.50724
RightShoulder  3.04223 13.4364 10.7435
RightArm  -51.7364 36.4896 7.09391
RightForeArm  -31.6309 44.2941 12.7
RightHand  0.0638572 -2.86199 4.10365
LeftUpLeg  -67.2004 19.8114 -18.4739
LeftLeg  32.0679 -2.58256 -1.39238
LeftFoot  4.34783 -1.64392 11.6948
LeftToes  1.06245e-005 4.65856e-005 -8.18503e-006
348
root  40.6569 37.2187 7.23855 -130.417 83.0844 -156.645
RightUpLeg  -63.0038 -27.0356 23.5345
RightLeg  27.3136 4.19608 2.12299
RightFoot  6.85648 1.63864 -9.90871
RightToes  0.000482159 0.542163 -0.142577
Spine  66.0329 -3.98434 5.65157
Spine1  9.05488 1.00634 -6.5642
HEad  -41.5925 -1.936 -7.6116
LeftShoulder1  6.0057 -22.8911 -15.884
LeftArm  -49.1922 -55.8031 -7.64447
LeftForeArm  -4.14404 -36.4635 -8.52813
LeftHand  -0.25398 0.0180481 5.50724
RightShoulder  3.27939 13.5837 12.1241
RightArm  -45.5278 33.6499 13.135
RightForeArm  -32.4022 48.4887 14.6381
RightHand  -0.00497427 -3.8019 1.79522
LeftUpLeg  -62.1753 20.241 -16.7241
LeftLeg  29.0484 -2.89524 -1.39782
LeftFoot  5.41533 -1.84216 12.2354
LeftToes  1.06245e-005 4.65856e-005 -8.18503e-006
349
root  40.2406 37.5419 7.14195 -133.54 82.3518 -156.178
RightUpLeg  -57.7859 -28.2939 21.6304
RightLeg  24.1993 3.79858 1.60759
RightFoot  8.80401 1.66627 -9.01798
RightToes  0.000482159 0.542163 -0.142577
Spine  64.797 -3.57561 5.32735
Spine1  9.18621 0.925133 -5.70302
HEad  -40.4881 0.0396616 -10.9773
LeftShoulder1  6.62868 -22.5436 -18.8008
LeftArm  -39.4336 -51.2644 -14.8407
LeftForeArm  -3.28734 -40.0005 -9.59831
LeftHand  -0.25398 0.0180481 5.50724
RightShoulder  3.57782 13.3595 14.3489
RightArm  -39.3563 29.2839 17.3735
RightForeArm  -31.6014 53.1483 17.1855
RightHand  -0.0352515 -4.96675 0.306626
LeftUpLeg  -56.9044 20.6483 -15.0327
LeftLeg  25.7068 -3.35446 -1.42189
LeftFoot  6.6897 -2.01002 12.3599
LeftToes  1.06245e-005 4.65856e-005 -8.18503e-006
350
root  39.823 37.8584 7.06558 -136.161 81.7155 -155.408
RightUpLeg  -52.1391 -28.8093 18.9532
RightLeg  20.69 3.5589 1.53629
RightFoot  10.6545 1.5408 -7.5544
RightToes  0.000482159 0.542163 -0.142577
Spine  63.7669 -3.0359 4.91755
Spine1  8.57491 0.963074 -4.76713
HEad  -39.1135 2.35543 -14.82
LeftShoulder1  7.63252 -22.1691 -23.333
LeftArm  -32.1178 -45.554 -19.366
LeftForeArm  -1.47806 -44.5764 -11.1382
LeftHand  -0.25398 0.0180481 5.50724
RightShoulder  3.966 13.1063 17.2716
RightArm  -34.2375 24.271 19.8046
RightForeArm  -29.5508 58.141 20.7066
RightHand  -0.035259 -6.5477 -1.05593
LeftUpLeg  -51.8572 21.5066 -13.8849
LeftLeg  22.0187 -4.32542 -1.55917
LeftFoot  8.39382 -2.23498 12.4965
LeftToes  1.06245e-005 4.65856e-005 -8.18503e-006
351
root  39.4088 38.1184 7.02306 -139.075 81.0528 -155.173
RightUpLeg  -45.4801 -27.0124 13.8262
RightLeg  17.9003 3.27115 2.20707
RightFoot  10.2822 0.862027 -4.07932
RightToes  0.000482159 0.542163 -0.142577
Spine  63.4332 -2.40808 4.41799
Spine1  6.29698 1.07576 -3.6744
HEad  -37.0906 5.4914 -18.9969
LeftShoulder1  8.8831 -21.6813 -29.1249
LeftArm  -26.3317 -38.5618 -21.9926
LeftForeArm  0.92748 -49.7306 -13.225
LeftHand  -0.25398 0.0180481 5.50724
RightShoulder  4.36295 12.5567 20.7953
RightArm  -29.2108 18.8241 20.7897
RightForeArm  -26.6272 63.1884 25.5723
RightHand  0.0130961 -8.23054 -2.80097
LeftUpLeg  -47.2014 22.5418 -12.9413
LeftLeg  18.4819 -5.50387 -1.88241
LeftFoot  10.3316 -2.50608 12.7059
LeftToes  1.06245e-005 4.65856e-005 -8.18503e-006
